<?xml version="1.0" standalone="no"?>
<!DOCTYPE svg PUBLIC "-//W3C//DTD SVG 20010904//EN"
 "http://www.w3.org/TR/2001/REC-SVG-20010904/DTD/svg10.dtd">
<svg version="1.0" xmlns="http://www.w3.org/2000/svg"
 width="300.000000pt" height="118.000000pt" viewBox="0 0 300.000000 118.000000"
 preserveAspectRatio="xMidYMid meet">
<metadata>
Created by potrace 1.10, written by Peter Selinger 2001-2011
</metadata>
<g transform="translate(0.000000,118.000000) scale(0.100000,-0.100000)"
fill="#000000" stroke="none">
<path d="M840 1171 c-55 -11 -77 -27 -191 -137 -60 -56 -125 -115 -146 -131
-21 -15 -40 -30 -43 -33 -3 -3 -36 -20 -75 -37 -95 -43 -214 -75 -310 -82
l-80 -6 32 -18 c41 -22 175 -23 258 -2 103 26 213 87 315 175 240 207 245 210
329 210 60 0 129 -22 194 -61 26 -16 50 -29 53 -29 17 0 -110 95 -160 120 -58
29 -126 40 -126 20 0 -5 -4 -10 -10 -10 -5 0 -7 7 -4 15 4 8 5 14 3 14 -2 -1
-20 -4 -39 -8z"/>
<path d="M852 1046 c-24 -14 -76 -55 -115 -91 -40 -37 -105 -89 -145 -116 -41
-27 -69 -49 -63 -49 25 0 211 89 269 129 85 58 121 71 190 71 73 0 121 -23
222 -106 76 -62 175 -124 200 -124 7 0 -7 14 -31 31 -24 18 -87 73 -139 124
-116 113 -177 147 -275 152 -61 4 -76 1 -113 -21z"/>
<path d="M1041 888 c-23 -69 -26 -104 -11 -143 12 -32 30 -28 49 9 10 21 11
50 6 112 -4 46 -10 84 -15 84 -4 0 -18 -28 -29 -62z"/>
<path d="M925 864 c-9 -78 -2 -132 20 -153 25 -25 48 12 40 64 -9 61 -37 155
-46 155 -4 0 -11 -29 -14 -66z"/>
<path d="M820 825 c0 -44 6 -90 15 -110 27 -65 71 -54 59 14 -7 43 -53 159
-65 167 -5 3 -9 -29 -9 -71z"/>
<path d="M1157 825 c-16 -33 -31 -76 -34 -96 -6 -42 11 -81 31 -73 26 10 37
59 34 145 l-3 84 -28 -60z"/>
<path d="M755 826 c-16 -57 -11 -160 8 -190 15 -22 21 -25 33 -15 21 17 17 83
-10 164 -22 65 -24 68 -31 41z"/>
<path d="M671 785 c-21 -67 -25 -167 -8 -190 41 -54 62 61 33 180 l-12 50 -13
-40z"/>
<path d="M580 730 c-37 -74 -43 -160 -10 -160 10 0 25 10 31 22 12 23 26 198
16 198 -4 0 -20 -27 -37 -60z"/>
<path d="M1256 730 c-58 -80 -73 -160 -31 -160 24 0 48 48 66 133 10 45 16 83
14 85 -2 2 -24 -24 -49 -58z"/>
<path d="M416 745 c-83 -35 -132 -83 -108 -107 25 -25 111 31 163 104 25 34
21 34 -55 3z"/>
<path d="M493 717 c-57 -59 -73 -85 -73 -121 0 -73 58 -23 100 87 17 43 29 81
27 83 -2 2 -26 -20 -54 -49z"/>
<path d="M1340 700 c0 -43 -22 -90 -59 -124 -37 -36 -39 -46 -7 -46 34 0 73
35 101 91 20 39 30 49 50 49 28 0 82 -50 121 -112 13 -20 36 -44 51 -52 26
-13 216 -27 688 -51 342 -18 465 -41 640 -119 l80 -36 -38 34 c-96 86 -212
123 -479 156 l-173 22 -165 78 c-259 123 -292 132 -500 138 l-175 4 25 -23
c24 -23 34 -24 165 -26 116 -1 154 -6 226 -27 141 -41 320 -129 301 -148 -5
-5 -101 -2 -238 8 -126 9 -262 17 -301 18 -40 0 -69 2 -64 4 5 2 -18 39 -52
84 -64 85 -98 108 -162 108 -32 0 -35 -2 -35 -30z"/>
<path d="M235 689 c-16 -5 -73 -13 -125 -17 l-95 -7 34 -35 c21 -22 36 -30 39
-22 5 15 32 16 32 1 0 -7 24 -8 73 -3 85 8 90 10 78 33 -7 13 -6 24 5 39 17
25 10 27 -41 11z"/>
<path d="M993 670 c-3 -13 -14 -20 -29 -20 -22 0 -24 -4 -24 -43 0 -24 -5 -69
-11 -101 -13 -63 -10 -71 21 -61 31 10 47 56 55 158 7 80 0 115 -12 67z"/>
<path d="M1084 656 c-3 -9 -16 -16 -29 -16 -20 0 -23 -6 -28 -67 -4 -38 -9
-80 -13 -95 -8 -33 12 -38 45 -10 17 13 24 35 32 105 10 84 7 120 -7 83z"/>
<path d="M903 640 c-5 -20 -13 -24 -45 -21 -14 2 -18 -5 -18 -31 0 -18 -9 -69
-19 -113 -11 -44 -17 -82 -15 -84 2 -3 20 3 38 12 32 15 36 22 50 89 20 97 29
168 21 168 -4 0 -9 -9 -12 -20z"/>
<path d="M315 602 c-38 -13 -101 -29 -139 -36 l-70 -12 22 -22 c32 -32 68 -37
141 -19 104 25 125 35 111 52 -9 10 -9 19 0 35 6 12 10 23 8 24 -2 1 -34 -9
-73 -22z"/>
<path d="M1170 605 c-7 -9 -19 -14 -25 -11 -8 3 -19 -23 -32 -75 l-19 -80 25
3 c32 4 48 36 59 117 5 33 8 61 7 61 -2 0 -8 -7 -15 -15z"/>
<path d="M1412 594 c-7 -14 -8 -23 -2 -19 5 3 10 2 10 -3 0 -5 -8 -12 -17 -16
-10 -3 -33 -17 -52 -31 -44 -32 -79 -41 -103 -26 -16 10 -18 8 -18 -18 0 -33
23 -61 48 -61 27 1 95 35 119 61 12 13 31 46 43 72 12 26 23 47 26 47 3 0 3
-4 -1 -10 -5 -9 66 -82 74 -75 6 7 -40 75 -62 90 -31 22 -52 18 -65 -11z"/>
<path d="M806 585 c-3 -10 -15 -15 -31 -13 -24 3 -28 -3 -49 -62 -13 -36 -31
-80 -40 -97 -20 -39 -20 -53 -1 -53 34 0 65 25 83 69 25 58 55 161 49 167 -2
3 -7 -2 -11 -11z"/>
<path d="M697 563 c-14 -14 -21 -15 -36 -6 -16 10 -21 7 -37 -30 -11 -23 -36
-68 -56 -100 -21 -32 -38 -60 -38 -62 0 -3 15 -5 33 -5 41 0 64 23 105 105 31
60 54 115 49 115 -2 0 -11 -8 -20 -17z"/>
<path d="M591 549 c-18 -15 -27 -17 -38 -8 -11 10 -17 7 -30 -12 -9 -13 -44
-52 -78 -86 -66 -65 -66 -73 -3 -73 36 0 86 47 145 136 40 60 41 73 4 43z"/>
<path d="M502 548 c-6 -6 -33 -15 -59 -19 -27 -4 -88 -24 -136 -45 -87 -39
-88 -39 -60 -51 53 -23 97 -16 156 25 67 45 121 91 115 97 -2 3 -10 -1 -16 -7z"/>
<path d="M2575 395 c-5 -2 -22 -6 -37 -9 -45 -10 -32 -21 21 -18 85 6 152 -42
180 -131 33 -101 -51 -207 -163 -207 -57 0 -93 17 -135 65 -35 40 -41 35 -11
-9 48 -74 169 -100 251 -54 112 63 132 213 41 310 -29 31 -116 62 -147 53z"/>
<path d="M1023 370 c-34 -14 -28 -19 16 -13 106 14 201 -70 201 -178 0 -86
-61 -153 -150 -165 -56 -7 -126 26 -155 73 -24 39 -41 44 -21 5 33 -64 86 -92
173 -92 81 0 133 33 169 105 22 47 26 64 21 107 -8 67 -44 120 -99 147 -46 22
-115 27 -155 11z"/>
<path d="M1325 112 c6 -5 159 -19 340 -31 324 -21 571 -26 630 -11 l30 7 -25
6 c-84 22 -220 30 -580 34 -253 3 -401 1 -395 -5z"/>
</g>
</svg>
